<mxfile host="app.diagrams.net" modified="2023-05-25T16:30:59.773Z" agent="Mozilla/5.0 (Macintosh; Intel Mac OS X 10.15; rv:109.0) Gecko/20100101 Firefox/113.0" etag="1ltwbOD6TpJM24LnBPUb" version="21.2.9" type="device">
  <diagram name="Seite-1" id="e94xtmsNPZZym2MxQetC">
    <mxGraphModel dx="1853" dy="686" grid="1" gridSize="10" guides="1" tooltips="1" connect="1" arrows="1" fold="1" page="1" pageScale="1" pageWidth="827" pageHeight="1169" math="0" shadow="0">
      <root>
        <mxCell id="0" />
        <mxCell id="1" parent="0" />
        <mxCell id="Sx4JDVQXUbzCfNYVF3Un-1" value="KA-BIND&lt;br&gt;" style="edgeStyle=orthogonalEdgeStyle;rounded=0;orthogonalLoop=1;jettySize=auto;html=1;entryX=0;entryY=0.5;entryDx=0;entryDy=0;" edge="1" parent="1" source="Sx4JDVQXUbzCfNYVF3Un-3" target="Sx4JDVQXUbzCfNYVF3Un-5">
          <mxGeometry relative="1" as="geometry" />
        </mxCell>
        <mxCell id="Sx4JDVQXUbzCfNYVF3Un-2" value="KA-TRANSFER" style="edgeStyle=orthogonalEdgeStyle;rounded=0;orthogonalLoop=1;jettySize=auto;html=1;entryX=1;entryY=0.5;entryDx=0;entryDy=0;startArrow=classic;startFill=1;" edge="1" parent="1" source="Sx4JDVQXUbzCfNYVF3Un-3" target="Sx4JDVQXUbzCfNYVF3Un-4">
          <mxGeometry relative="1" as="geometry" />
        </mxCell>
        <mxCell id="Sx4JDVQXUbzCfNYVF3Un-3" value="«interface»&lt;br&gt;&lt;b&gt;Matchmaking Agent&lt;/b&gt;" style="html=1;" vertex="1" parent="1">
          <mxGeometry x="30" y="270" width="110" height="50" as="geometry" />
        </mxCell>
        <mxCell id="Sx4JDVQXUbzCfNYVF3Un-4" value="«interface»&lt;br&gt;&lt;b&gt;Eclipse Dataspace &lt;br&gt;Connector&lt;/b&gt;" style="html=1;" vertex="1" parent="1">
          <mxGeometry x="-210" y="270" width="110" height="50" as="geometry" />
        </mxCell>
        <mxCell id="Sx4JDVQXUbzCfNYVF3Un-5" value="«interface»&lt;br&gt;&lt;b&gt;Binding Agent&lt;/b&gt;" style="html=1;" vertex="1" parent="1">
          <mxGeometry x="250" y="270" width="110" height="50" as="geometry" />
        </mxCell>
        <mxCell id="Sx4JDVQXUbzCfNYVF3Un-6" value="KA-MATCH" style="edgeStyle=orthogonalEdgeStyle;rounded=0;orthogonalLoop=1;jettySize=auto;html=1;" edge="1" parent="1" source="Sx4JDVQXUbzCfNYVF3Un-7" target="Sx4JDVQXUbzCfNYVF3Un-3">
          <mxGeometry relative="1" as="geometry" />
        </mxCell>
        <mxCell id="Sx4JDVQXUbzCfNYVF3Un-7" value="User / Application" style="shape=umlActor;verticalLabelPosition=bottom;verticalAlign=top;html=1;" vertex="1" parent="1">
          <mxGeometry x="70" y="70" width="30" height="60" as="geometry" />
        </mxCell>
      </root>
    </mxGraphModel>
  </diagram>
</mxfile>
